<mxfile host="app.diagrams.net" modified="2024-03-03T10:28:30.441Z" agent="Mozilla/5.0 (Windows NT 10.0; Win64; x64) AppleWebKit/537.36 (KHTML, like Gecko) Chrome/122.0.0.0 Safari/537.36" etag="k174kXzOHnQNDGJbHiso" version="24.0.1" type="device">
  <diagram name="Page-1" id="lNiGZyVrh1PG7opVN7t-">
    <mxGraphModel dx="794" dy="446" grid="1" gridSize="10" guides="1" tooltips="1" connect="1" arrows="1" fold="1" page="1" pageScale="1" pageWidth="850" pageHeight="1100" background="#FFFFFF" math="0" shadow="0">
      <root>
        <mxCell id="0" />
        <mxCell id="1" parent="0" />
        <mxCell id="ifiETsFPABOgiDAHyqXk-23" style="edgeStyle=orthogonalEdgeStyle;rounded=0;orthogonalLoop=1;jettySize=auto;html=1;exitX=0.25;exitY=1;exitDx=0;exitDy=0;entryX=0.25;entryY=0;entryDx=0;entryDy=0;" edge="1" parent="1" source="ifiETsFPABOgiDAHyqXk-1" target="ifiETsFPABOgiDAHyqXk-2">
          <mxGeometry relative="1" as="geometry" />
        </mxCell>
        <mxCell id="ifiETsFPABOgiDAHyqXk-1" value="Controller layer" style="rounded=1;whiteSpace=wrap;html=1;fillColor=#d5e8d4;strokeColor=#82b366;" vertex="1" parent="1">
          <mxGeometry x="270" y="70" width="290" height="30" as="geometry" />
        </mxCell>
        <mxCell id="ifiETsFPABOgiDAHyqXk-21" style="edgeStyle=orthogonalEdgeStyle;rounded=0;orthogonalLoop=1;jettySize=auto;html=1;exitX=0.25;exitY=1;exitDx=0;exitDy=0;entryX=0.25;entryY=0;entryDx=0;entryDy=0;" edge="1" parent="1" source="ifiETsFPABOgiDAHyqXk-2" target="ifiETsFPABOgiDAHyqXk-3">
          <mxGeometry relative="1" as="geometry" />
        </mxCell>
        <mxCell id="ifiETsFPABOgiDAHyqXk-24" style="edgeStyle=orthogonalEdgeStyle;rounded=0;orthogonalLoop=1;jettySize=auto;html=1;exitX=0.75;exitY=0;exitDx=0;exitDy=0;entryX=0.75;entryY=1;entryDx=0;entryDy=0;" edge="1" parent="1" source="ifiETsFPABOgiDAHyqXk-2" target="ifiETsFPABOgiDAHyqXk-1">
          <mxGeometry relative="1" as="geometry" />
        </mxCell>
        <mxCell id="ifiETsFPABOgiDAHyqXk-2" value="Customer Service" style="rounded=1;whiteSpace=wrap;html=1;fillColor=#dae8fc;strokeColor=#6c8ebf;" vertex="1" parent="1">
          <mxGeometry x="270" y="120" width="290" height="30" as="geometry" />
        </mxCell>
        <mxCell id="ifiETsFPABOgiDAHyqXk-18" style="edgeStyle=orthogonalEdgeStyle;rounded=0;orthogonalLoop=1;jettySize=auto;html=1;exitX=0.25;exitY=1;exitDx=0;exitDy=0;entryX=0.25;entryY=0;entryDx=0;entryDy=0;" edge="1" parent="1" source="ifiETsFPABOgiDAHyqXk-3" target="ifiETsFPABOgiDAHyqXk-4">
          <mxGeometry relative="1" as="geometry" />
        </mxCell>
        <mxCell id="ifiETsFPABOgiDAHyqXk-22" style="edgeStyle=orthogonalEdgeStyle;rounded=0;orthogonalLoop=1;jettySize=auto;html=1;exitX=0.75;exitY=0;exitDx=0;exitDy=0;entryX=0.75;entryY=1;entryDx=0;entryDy=0;" edge="1" parent="1" source="ifiETsFPABOgiDAHyqXk-3" target="ifiETsFPABOgiDAHyqXk-2">
          <mxGeometry relative="1" as="geometry" />
        </mxCell>
        <mxCell id="ifiETsFPABOgiDAHyqXk-3" value="Customer Dao Interface" style="rounded=1;whiteSpace=wrap;html=1;fillColor=#f5f5f5;fontColor=#333333;strokeColor=#666666;" vertex="1" parent="1">
          <mxGeometry x="270" y="170" width="290" height="30" as="geometry" />
        </mxCell>
        <mxCell id="ifiETsFPABOgiDAHyqXk-4" value="" style="rounded=1;whiteSpace=wrap;html=1;" vertex="1" parent="1">
          <mxGeometry x="270" y="220" width="300" height="60" as="geometry" />
        </mxCell>
        <mxCell id="ifiETsFPABOgiDAHyqXk-5" value="spring data jpa" style="rounded=1;whiteSpace=wrap;html=1;fillColor=#e1d5e7;strokeColor=#9673a6;" vertex="1" parent="1">
          <mxGeometry x="282" y="235" width="88" height="30" as="geometry" />
        </mxCell>
        <mxCell id="ifiETsFPABOgiDAHyqXk-6" value="List &amp;lt;Customer&amp;gt;" style="rounded=1;whiteSpace=wrap;html=1;fillColor=#f8cecc;strokeColor=#b85450;" vertex="1" parent="1">
          <mxGeometry x="383" y="235" width="84" height="30" as="geometry" />
        </mxCell>
        <mxCell id="ifiETsFPABOgiDAHyqXk-7" value="JDBC template" style="rounded=1;whiteSpace=wrap;html=1;fillColor=#fff2cc;strokeColor=#d6b656;" vertex="1" parent="1">
          <mxGeometry x="480" y="235" width="80" height="30" as="geometry" />
        </mxCell>
        <mxCell id="ifiETsFPABOgiDAHyqXk-10" style="edgeStyle=orthogonalEdgeStyle;rounded=0;orthogonalLoop=1;jettySize=auto;html=1;exitX=0;exitY=0;exitDx=0;exitDy=27.5;exitPerimeter=0;entryX=0.25;entryY=1;entryDx=0;entryDy=0;" edge="1" parent="1">
          <mxGeometry relative="1" as="geometry">
            <mxPoint x="395" y="346.5" as="sourcePoint" />
            <mxPoint x="304" y="264" as="targetPoint" />
            <Array as="points">
              <mxPoint x="395" y="360" />
              <mxPoint x="305" y="360" />
            </Array>
          </mxGeometry>
        </mxCell>
        <mxCell id="ifiETsFPABOgiDAHyqXk-13" style="edgeStyle=orthogonalEdgeStyle;rounded=0;orthogonalLoop=1;jettySize=auto;html=1;exitX=0.5;exitY=0;exitDx=0;exitDy=0;exitPerimeter=0;entryX=0.5;entryY=1;entryDx=0;entryDy=0;" edge="1" parent="1" source="ifiETsFPABOgiDAHyqXk-8" target="ifiETsFPABOgiDAHyqXk-6">
          <mxGeometry relative="1" as="geometry" />
        </mxCell>
        <mxCell id="ifiETsFPABOgiDAHyqXk-8" value="Database" style="shape=cylinder3;whiteSpace=wrap;html=1;boundedLbl=1;backgroundOutline=1;size=15;fillColor=#cce5ff;strokeColor=#36393d;" vertex="1" parent="1">
          <mxGeometry x="395" y="320" width="60" height="80" as="geometry" />
        </mxCell>
        <mxCell id="ifiETsFPABOgiDAHyqXk-11" style="edgeStyle=orthogonalEdgeStyle;rounded=0;orthogonalLoop=1;jettySize=auto;html=1;exitX=0.5;exitY=1;exitDx=0;exitDy=0;entryX=0;entryY=0;entryDx=0;entryDy=15;entryPerimeter=0;" edge="1" parent="1" source="ifiETsFPABOgiDAHyqXk-5" target="ifiETsFPABOgiDAHyqXk-8">
          <mxGeometry relative="1" as="geometry" />
        </mxCell>
        <mxCell id="ifiETsFPABOgiDAHyqXk-15" style="edgeStyle=orthogonalEdgeStyle;rounded=0;orthogonalLoop=1;jettySize=auto;html=1;exitX=1;exitY=0;exitDx=0;exitDy=27.5;exitPerimeter=0;" edge="1" parent="1" source="ifiETsFPABOgiDAHyqXk-8">
          <mxGeometry relative="1" as="geometry">
            <mxPoint x="509" y="260" as="targetPoint" />
            <Array as="points">
              <mxPoint x="455" y="340" />
              <mxPoint x="510" y="340" />
            </Array>
          </mxGeometry>
        </mxCell>
        <mxCell id="ifiETsFPABOgiDAHyqXk-16" style="edgeStyle=orthogonalEdgeStyle;rounded=0;orthogonalLoop=1;jettySize=auto;html=1;exitX=0.75;exitY=1;exitDx=0;exitDy=0;entryX=1;entryY=0.5;entryDx=0;entryDy=0;entryPerimeter=0;" edge="1" parent="1" source="ifiETsFPABOgiDAHyqXk-7" target="ifiETsFPABOgiDAHyqXk-8">
          <mxGeometry relative="1" as="geometry" />
        </mxCell>
        <mxCell id="ifiETsFPABOgiDAHyqXk-17" style="edgeStyle=orthogonalEdgeStyle;rounded=0;orthogonalLoop=1;jettySize=auto;html=1;exitX=0.75;exitY=1;exitDx=0;exitDy=0;entryX=0.65;entryY=-0.017;entryDx=0;entryDy=0;entryPerimeter=0;" edge="1" parent="1" source="ifiETsFPABOgiDAHyqXk-6" target="ifiETsFPABOgiDAHyqXk-8">
          <mxGeometry relative="1" as="geometry" />
        </mxCell>
        <mxCell id="ifiETsFPABOgiDAHyqXk-20" style="edgeStyle=orthogonalEdgeStyle;rounded=0;orthogonalLoop=1;jettySize=auto;html=1;exitX=0.75;exitY=0;exitDx=0;exitDy=0;entryX=0.784;entryY=1.044;entryDx=0;entryDy=0;entryPerimeter=0;" edge="1" parent="1" source="ifiETsFPABOgiDAHyqXk-4" target="ifiETsFPABOgiDAHyqXk-3">
          <mxGeometry relative="1" as="geometry" />
        </mxCell>
        <mxCell id="ifiETsFPABOgiDAHyqXk-26" value="Dao Implementations&lt;div&gt;Classes&lt;/div&gt;" style="text;html=1;align=center;verticalAlign=middle;whiteSpace=wrap;rounded=0;" vertex="1" parent="1">
          <mxGeometry x="365" y="205" width="120" height="30" as="geometry" />
        </mxCell>
        <mxCell id="ifiETsFPABOgiDAHyqXk-28" value="" style="endArrow=none;html=1;rounded=0;" edge="1" parent="1" source="ifiETsFPABOgiDAHyqXk-29">
          <mxGeometry width="50" height="50" relative="1" as="geometry">
            <mxPoint x="210" y="390" as="sourcePoint" />
            <mxPoint x="210" y="70" as="targetPoint" />
          </mxGeometry>
        </mxCell>
        <mxCell id="ifiETsFPABOgiDAHyqXk-30" value="" style="endArrow=none;html=1;rounded=0;" edge="1" parent="1" target="ifiETsFPABOgiDAHyqXk-29">
          <mxGeometry width="50" height="50" relative="1" as="geometry">
            <mxPoint x="210" y="390" as="sourcePoint" />
            <mxPoint x="210" y="70" as="targetPoint" />
          </mxGeometry>
        </mxCell>
        <mxCell id="ifiETsFPABOgiDAHyqXk-29" value="Spring boot Backend" style="text;html=1;align=center;verticalAlign=middle;whiteSpace=wrap;rounded=0;rotation=270;fillColor=#eeeeee;strokeColor=#36393d;" vertex="1" parent="1">
          <mxGeometry x="132" y="210" width="150" height="30" as="geometry" />
        </mxCell>
      </root>
    </mxGraphModel>
  </diagram>
</mxfile>
